<svg width="32" height="32" viewBox="0 0 32 32" fill="none" xmlns="http://www.w3.org/2000/svg">
  <rect width="32" height="32" rx="6" fill="url(#gradient)"/>
  <path d="M8 6h16c1.1 0 2 .9 2 2v16c0 1.1-.9 2-2 2H8c-1.1 0-2-.9-2-2V8c0-1.1.9-2 2-2z" fill="white" fill-opacity="0.1"/>
  <path d="M12 10h8v2h-8v-2zm0 4h8v2h-8v-2zm0 4h6v2h-6v-2z" fill="white"/>
  <circle cx="10" cy="11" r="1" fill="white"/>
  <circle cx="10" cy="15" r="1" fill="white"/>
  <circle cx="10" cy="19" r="1" fill="white"/>
  <defs>
    <linearGradient id="gradient" x1="0%" y1="0%" x2="100%" y2="100%">
      <stop offset="0%" style="stop-color:#1a1a1a"/>
      <stop offset="100%" style="stop-color:#333333"/>
    </linearGradient>
  </defs>
</svg>
