<svg xmlns="http://www.w3.org/2000/svg" xmlns:xlink="http://www.w3.org/1999/xlink" width="476" zoomAndPan="magnify" viewBox="0 0 357 74.999997" height="100" preserveAspectRatio="xMidYMid meet" version="1.2"><defs/><g id="5c8264a319"><g style="fill:#000000;fill-opacity:1;"><g transform="translate(7.524861, 56.774128)"><path style="stroke:none" d="M 9.605469 -25.96875 L -0.300781 -25.96875 L -0.300781 -31.660156 L 23.675781 -31.660156 L 23.675781 -25.96875 L 13.769531 -25.96875 L 13.769531 -26.925781 L 14.730469 -26.925781 L 14.730469 0.960938 L 8.644531 0.960938 L 8.644531 -26.925781 L 9.605469 -26.925781 Z M 10.5625 -27.886719 L 10.5625 0 L 9.605469 0 L 9.605469 -0.960938 L 13.769531 -0.960938 L 13.769531 0 L 12.8125 0 L 12.8125 -27.886719 L 22.71875 -27.886719 L 22.71875 -26.925781 L 21.757812 -26.925781 L 21.757812 -30.699219 L 22.71875 -30.699219 L 22.71875 -29.738281 L 0.65625 -29.738281 L 0.65625 -30.699219 L 1.617188 -30.699219 L 1.617188 -26.925781 L 0.65625 -26.925781 L 0.65625 -27.886719 Z M 10.5625 -27.886719 "/></g></g><g style="fill:#000000;fill-opacity:1;"><g transform="translate(27.034195, 56.774128)"><path style="stroke:none" d="M 2.675781 -22.449219 L 6.757812 -22.449219 L 7.355469 -18.066406 L 6.402344 -17.9375 L 5.65625 -18.539062 C 6.832031 -19.996094 7.96875 -21.074219 9.066406 -21.773438 C 10.234375 -22.515625 11.464844 -22.886719 12.761719 -22.886719 C 13.199219 -22.886719 13.617188 -22.832031 14.023438 -22.722656 L 14.800781 -22.511719 L 14.230469 -16.273438 L 13.160156 -16.519531 C 12.851562 -16.589844 12.484375 -16.625 12.058594 -16.625 C 11.128906 -16.625 10.25 -16.417969 9.417969 -16.003906 C 8.601562 -15.597656 8.023438 -15.140625 7.679688 -14.632812 L 6.886719 -15.175781 L 7.84375 -15.175781 L 7.84375 0.960938 L 1.714844 0.960938 L 1.714844 -22.449219 Z M 2.675781 -20.53125 L 2.675781 -21.488281 L 3.632812 -21.488281 L 3.632812 0 L 2.675781 0 L 2.675781 -0.960938 L 6.886719 -0.960938 L 6.886719 0 L 5.925781 0 L 5.925781 -15.46875 L 6.09375 -15.714844 C 6.625 -16.496094 7.449219 -17.164062 8.5625 -17.71875 C 9.660156 -18.269531 10.828125 -18.546875 12.058594 -18.546875 C 12.628906 -18.546875 13.140625 -18.492188 13.589844 -18.390625 L 13.375 -17.453125 L 12.421875 -17.542969 L 12.816406 -21.882812 L 13.769531 -21.796875 L 13.519531 -20.871094 C 13.277344 -20.9375 13.027344 -20.96875 12.761719 -20.96875 C 11.835938 -20.96875 10.949219 -20.695312 10.097656 -20.152344 C 9.175781 -19.566406 8.195312 -18.625 7.148438 -17.332031 L 5.75 -15.605469 L 4.96875 -21.359375 L 5.921875 -21.488281 L 5.921875 -20.53125 Z M 2.675781 -20.53125 "/></g></g><g style="fill:#000000;fill-opacity:1;"><g transform="translate(40.888759, 56.774128)"><path style="stroke:none" d="M 21.265625 -21.488281 L 21.265625 0.960938 L 16 0.960938 L 15.414062 -2.195312 L 16.359375 -2.367188 L 17.132812 -1.804688 C 16.335938 -0.707031 15.390625 0.101562 14.292969 0.625 C 13.210938 1.140625 11.914062 1.398438 10.394531 1.398438 C 7.53125 1.398438 5.320312 0.503906 3.769531 -1.277344 C 2.253906 -3.023438 1.496094 -5.59375 1.496094 -8.992188 L 1.496094 -22.449219 L 7.363281 -22.449219 L 7.363281 -10.085938 C 7.363281 -7.945312 7.707031 -6.375 8.398438 -5.367188 C 9.011719 -4.476562 10.015625 -4.027344 11.402344 -4.027344 C 12.285156 -4.027344 13.109375 -4.203125 13.875 -4.554688 C 14.59375 -4.886719 15.152344 -5.363281 15.546875 -5.992188 L 16.359375 -5.480469 L 15.398438 -5.480469 L 15.398438 -22.449219 L 21.265625 -22.449219 Z M 19.347656 -21.488281 L 20.304688 -21.488281 L 20.304688 -20.53125 L 16.359375 -20.53125 L 16.359375 -21.488281 L 17.316406 -21.488281 L 17.316406 -5.203125 L 17.171875 -4.972656 C 16.570312 -4.019531 15.738281 -3.300781 14.675781 -2.8125 C 13.65625 -2.34375 12.566406 -2.109375 11.402344 -2.109375 C 9.339844 -2.109375 7.8125 -2.832031 6.816406 -4.28125 C 5.902344 -5.613281 5.445312 -7.550781 5.445312 -10.085938 L 5.445312 -21.488281 L 6.402344 -21.488281 L 6.402344 -20.53125 L 2.457031 -20.53125 L 2.457031 -21.488281 L 3.414062 -21.488281 L 3.414062 -8.992188 C 3.414062 -6.070312 4.015625 -3.921875 5.21875 -2.535156 C 6.386719 -1.191406 8.113281 -0.519531 10.394531 -0.519531 C 11.625 -0.519531 12.648438 -0.714844 13.46875 -1.105469 C 14.269531 -1.492188 14.976562 -2.097656 15.582031 -2.933594 L 16.894531 -4.738281 L 17.738281 -0.175781 L 16.796875 0 L 16.796875 -0.960938 L 20.304688 -0.960938 L 20.304688 0 L 19.347656 0 Z M 19.347656 -21.488281 "/></g></g><g style="fill:#000000;fill-opacity:1;"><g transform="translate(63.86279, 56.774128)"><path style="stroke:none" d="M 8.375 -0.582031 L -1.15625 -22.449219 L 5.328125 -22.449219 L 12.285156 -5.898438 L 11.402344 -5.527344 L 10.503906 -5.867188 L 16.792969 -22.449219 L 23.269531 -22.449219 L 9.328125 11.574219 L 2.84375 11.574219 L 8.371094 -1.34375 L 9.253906 -0.964844 Z M 10.296875 -0.96875 L 5.179688 10.992188 L 4.296875 10.613281 L 4.296875 9.652344 L 8.683594 9.652344 L 8.683594 10.613281 L 7.796875 10.25 L 20.953125 -21.851562 L 21.839844 -21.488281 L 21.839844 -20.53125 L 17.453125 -20.53125 L 17.453125 -21.488281 L 18.351562 -21.148438 L 11.449219 -2.941406 L 3.808594 -21.117188 L 4.691406 -21.488281 L 4.691406 -20.53125 L 0.308594 -20.53125 L 0.308594 -21.488281 L 1.1875 -21.871094 L 10.132812 -1.347656 Z M 10.296875 -0.96875 "/></g></g><g style="fill:#000000;fill-opacity:1;"><g transform="translate(85.565229, 56.774128)"><path style="stroke:none" d="M 12.980469 1.398438 C 10.351562 1.398438 8.09375 0.851562 6.207031 -0.246094 C 4.308594 -1.347656 2.863281 -2.839844 1.871094 -4.730469 C 0.890625 -6.59375 0.398438 -8.65625 0.398438 -10.921875 C 0.398438 -13.085938 0.851562 -15.078125 1.75 -16.894531 C 2.664062 -18.738281 3.996094 -20.199219 5.746094 -21.277344 C 7.496094 -22.351562 9.539062 -22.886719 11.886719 -22.886719 C 14.886719 -22.886719 17.335938 -21.996094 19.230469 -20.214844 C 21.140625 -18.417969 22.097656 -15.960938 22.097656 -12.851562 C 22.097656 -12.0625 22.035156 -11.308594 21.90625 -10.582031 L 21.769531 -9.785156 L 5.394531 -9.785156 L 5.394531 -10.746094 L 6.347656 -10.835938 C 6.585938 -8.324219 7.320312 -6.566406 8.542969 -5.566406 C 9.800781 -4.542969 11.441406 -4.027344 13.464844 -4.027344 C 15.578125 -4.027344 17.507812 -4.425781 19.25 -5.214844 L 20.386719 -5.730469 L 21.242188 -0.65625 L 20.566406 -0.351562 C 17.957031 0.816406 15.425781 1.398438 12.980469 1.398438 Z M 12.980469 -0.519531 C 15.15625 -0.519531 17.421875 -1.046875 19.78125 -2.105469 L 20.171875 -1.226562 L 19.226562 -1.066406 L 18.703125 -4.183594 L 19.648438 -4.339844 L 20.042969 -3.46875 C 18.046875 -2.5625 15.851562 -2.109375 13.464844 -2.109375 C 10.984375 -2.109375 8.941406 -2.765625 7.332031 -4.082031 C 5.691406 -5.417969 4.726562 -7.609375 4.4375 -10.652344 L 4.339844 -11.703125 L 20.964844 -11.703125 L 20.964844 -10.746094 L 20.019531 -10.910156 C 20.125 -11.527344 20.179688 -12.175781 20.179688 -12.851562 C 20.179688 -15.410156 19.425781 -17.398438 17.914062 -18.816406 C 16.390625 -20.25 14.378906 -20.96875 11.886719 -20.96875 C 9.902344 -20.96875 8.191406 -20.527344 6.75 -19.640625 C 5.316406 -18.757812 4.21875 -17.558594 3.46875 -16.042969 C 2.703125 -14.496094 2.320312 -12.789062 2.320312 -10.921875 C 2.320312 -8.972656 2.734375 -7.207031 3.566406 -5.621094 C 4.390625 -4.058594 5.589844 -2.820312 7.167969 -1.90625 C 8.761719 -0.980469 10.699219 -0.519531 12.980469 -0.519531 Z M 16.101562 -13.464844 C 16.101562 -14.75 15.753906 -15.734375 15.066406 -16.425781 C 14.375 -17.113281 13.285156 -17.460938 11.796875 -17.460938 C 10.339844 -17.460938 9.21875 -17.121094 8.433594 -16.441406 C 7.621094 -15.742188 7.035156 -14.671875 6.675781 -13.230469 L 5.746094 -13.464844 L 5.746094 -14.421875 L 17.058594 -14.421875 L 17.058594 -13.464844 Z M 18.019531 -12.503906 L 4.515625 -12.503906 L 4.8125 -13.695312 C 5.273438 -15.53125 6.0625 -16.929688 7.179688 -17.894531 C 8.324219 -18.882812 9.863281 -19.378906 11.796875 -19.378906 C 13.816406 -19.378906 15.359375 -18.847656 16.421875 -17.78125 C 17.488281 -16.71875 18.019531 -15.277344 18.019531 -13.464844 Z M 18.019531 -12.503906 "/></g></g><g style="fill:#000000;fill-opacity:1;"><g transform="translate(108.013137, 56.774128)"><path style="stroke:none" d="M 13.289062 -22.886719 C 16.503906 -22.886719 18.9375 -21.9375 20.589844 -20.035156 C 22.210938 -18.175781 23.019531 -15.441406 23.019531 -11.839844 L 23.019531 0.960938 L 17.152344 0.960938 L 17.152344 -11.839844 C 17.152344 -13.917969 16.796875 -15.390625 16.082031 -16.25 C 15.410156 -17.054688 14.214844 -17.460938 12.5 -17.460938 C 11.347656 -17.460938 10.308594 -17.253906 9.378906 -16.839844 C 8.519531 -16.460938 7.878906 -15.894531 7.457031 -15.140625 L 6.621094 -15.613281 L 7.582031 -15.613281 L 7.582031 0.960938 L 1.714844 0.960938 L 1.714844 -22.449219 L 6.539062 -22.449219 L 7.125 -19.390625 L 6.183594 -19.207031 L 5.542969 -19.921875 C 6.78125 -21.03125 8.039062 -21.808594 9.316406 -22.242188 C 10.570312 -22.671875 11.894531 -22.886719 13.289062 -22.886719 Z M 13.289062 -20.96875 C 12.109375 -20.96875 10.992188 -20.789062 9.9375 -20.429688 C 8.90625 -20.074219 7.867188 -19.429688 6.824219 -18.496094 L 5.5625 -17.363281 L 4.804688 -21.308594 L 5.746094 -21.488281 L 5.746094 -20.53125 L 2.675781 -20.53125 L 2.675781 -21.488281 L 3.632812 -21.488281 L 3.632812 0 L 2.675781 0 L 2.675781 -0.960938 L 6.621094 -0.960938 L 6.621094 0 L 5.664062 0 L 5.664062 -15.863281 L 5.785156 -16.082031 C 6.417969 -17.203125 7.355469 -18.039062 8.601562 -18.59375 C 9.777344 -19.117188 11.078125 -19.378906 12.5 -19.378906 C 14.816406 -19.378906 16.503906 -18.746094 17.554688 -17.476562 C 18.566406 -16.261719 19.070312 -14.382812 19.070312 -11.839844 L 19.070312 0 L 18.113281 0 L 18.113281 -0.960938 L 22.058594 -0.960938 L 22.058594 0 L 21.101562 0 L 21.101562 -11.839844 C 21.101562 -14.964844 20.449219 -17.277344 19.144531 -18.777344 C 17.871094 -20.238281 15.921875 -20.96875 13.289062 -20.96875 Z M 13.289062 -20.96875 "/></g></g><g style="fill:#000000;fill-opacity:1;"><g transform="translate(128.399276, 56.774128)"><path style="stroke:none" d="M 9.605469 -25.96875 L -0.300781 -25.96875 L -0.300781 -31.660156 L 23.675781 -31.660156 L 23.675781 -25.96875 L 13.769531 -25.96875 L 13.769531 -26.925781 L 14.730469 -26.925781 L 14.730469 0.960938 L 8.644531 0.960938 L 8.644531 -26.925781 L 9.605469 -26.925781 Z M 10.5625 -27.886719 L 10.5625 0 L 9.605469 0 L 9.605469 -0.960938 L 13.769531 -0.960938 L 13.769531 0 L 12.8125 0 L 12.8125 -27.886719 L 22.71875 -27.886719 L 22.71875 -26.925781 L 21.757812 -26.925781 L 21.757812 -30.699219 L 22.71875 -30.699219 L 22.71875 -29.738281 L 0.65625 -29.738281 L 0.65625 -30.699219 L 1.617188 -30.699219 L 1.617188 -26.925781 L 0.65625 -26.925781 L 0.65625 -27.886719 Z M 10.5625 -27.886719 "/></g></g><g style="fill:#000000;fill-opacity:1;"><g transform="translate(147.908609, 56.774128)"><path style="stroke:none" d="M 2.675781 -22.449219 L 6.757812 -22.449219 L 7.355469 -18.066406 L 6.402344 -17.9375 L 5.65625 -18.539062 C 6.832031 -19.996094 7.96875 -21.074219 9.066406 -21.773438 C 10.234375 -22.515625 11.464844 -22.886719 12.761719 -22.886719 C 13.199219 -22.886719 13.617188 -22.832031 14.023438 -22.722656 L 14.800781 -22.511719 L 14.230469 -16.273438 L 13.160156 -16.519531 C 12.851562 -16.589844 12.484375 -16.625 12.058594 -16.625 C 11.128906 -16.625 10.25 -16.417969 9.417969 -16.003906 C 8.601562 -15.597656 8.023438 -15.140625 7.679688 -14.632812 L 6.886719 -15.175781 L 7.84375 -15.175781 L 7.84375 0.960938 L 1.714844 0.960938 L 1.714844 -22.449219 Z M 2.675781 -20.53125 L 2.675781 -21.488281 L 3.632812 -21.488281 L 3.632812 0 L 2.675781 0 L 2.675781 -0.960938 L 6.886719 -0.960938 L 6.886719 0 L 5.925781 0 L 5.925781 -15.46875 L 6.09375 -15.714844 C 6.625 -16.496094 7.449219 -17.164062 8.5625 -17.71875 C 9.660156 -18.269531 10.828125 -18.546875 12.058594 -18.546875 C 12.628906 -18.546875 13.140625 -18.492188 13.589844 -18.390625 L 13.375 -17.453125 L 12.421875 -17.542969 L 12.816406 -21.882812 L 13.769531 -21.796875 L 13.519531 -20.871094 C 13.277344 -20.9375 13.027344 -20.96875 12.761719 -20.96875 C 11.835938 -20.96875 10.949219 -20.695312 10.097656 -20.152344 C 9.175781 -19.566406 8.195312 -18.625 7.148438 -17.332031 L 5.75 -15.605469 L 4.96875 -21.359375 L 5.921875 -21.488281 L 5.921875 -20.53125 Z M 2.675781 -20.53125 "/></g></g><g style="fill:#000000;fill-opacity:1;"><g transform="translate(161.45618, 56.774128)"><path style="stroke:none" d="M 7.675781 1.398438 C 5.429688 1.398438 3.605469 0.722656 2.207031 -0.625 C 0.796875 -1.984375 0.09375 -3.703125 0.09375 -5.789062 C 0.09375 -7.339844 0.46875 -8.683594 1.21875 -9.816406 C 1.960938 -10.941406 3.0625 -11.835938 4.515625 -12.496094 C 7.207031 -13.71875 10.332031 -14.363281 13.886719 -14.421875 L 13.902344 -13.464844 L 12.941406 -13.464844 C 12.941406 -15.113281 12.671875 -16.1875 12.132812 -16.683594 C 11.570312 -17.199219 10.597656 -17.460938 9.210938 -17.460938 C 8.398438 -17.460938 7.585938 -17.335938 6.773438 -17.085938 C 5.960938 -16.835938 5.070312 -16.375 4.097656 -15.703125 L 2.871094 -14.847656 L 1.933594 -20.097656 L 2.398438 -20.453125 C 3.363281 -21.191406 4.542969 -21.785156 5.9375 -22.226562 C 7.316406 -22.667969 8.757812 -22.886719 10.261719 -22.886719 C 12.277344 -22.886719 13.910156 -22.523438 15.15625 -21.789062 C 16.457031 -21.027344 17.402344 -19.789062 17.988281 -18.074219 C 18.535156 -16.480469 18.808594 -14.332031 18.808594 -11.621094 L 18.808594 -7.234375 C 18.808594 -6.121094 18.855469 -5.289062 18.949219 -4.746094 C 19.015625 -4.359375 19.140625 -4.082031 19.332031 -3.910156 C 19.5 -3.753906 19.824219 -3.679688 20.304688 -3.679688 L 21.863281 -3.679688 L 20.875 1.398438 L 19.777344 1.398438 C 18.445312 1.398438 17.382812 1.265625 16.582031 0.996094 C 15.707031 0.707031 15.027344 0.273438 14.546875 -0.308594 C 14.121094 -0.816406 13.726562 -1.496094 13.371094 -2.34375 L 14.253906 -2.71875 L 14.980469 -2.09375 C 12.976562 0.234375 10.539062 1.398438 7.675781 1.398438 Z M 7.675781 -0.519531 C 9.953125 -0.519531 11.90625 -1.460938 13.527344 -3.34375 L 14.535156 -4.515625 L 15.136719 -3.09375 C 15.421875 -2.421875 15.714844 -1.902344 16.019531 -1.535156 C 16.269531 -1.238281 16.660156 -1 17.1875 -0.824219 C 17.789062 -0.621094 18.65625 -0.519531 19.777344 -0.519531 L 20.085938 -0.519531 L 20.085938 0.4375 L 19.144531 0.253906 L 19.757812 -2.902344 L 20.699219 -2.71875 L 20.699219 -1.757812 L 20.304688 -1.757812 C 19.324219 -1.757812 18.570312 -2.003906 18.035156 -2.496094 C 17.523438 -2.964844 17.195312 -3.605469 17.058594 -4.421875 C 16.945312 -5.074219 16.890625 -6.011719 16.890625 -7.234375 L 16.890625 -11.621094 C 16.890625 -14.117188 16.652344 -16.058594 16.175781 -17.449219 C 15.738281 -18.71875 15.078125 -19.613281 14.183594 -20.136719 C 13.238281 -20.691406 11.929688 -20.96875 10.261719 -20.96875 C 8.957031 -20.96875 7.710938 -20.777344 6.519531 -20.398438 C 5.339844 -20.023438 4.355469 -19.535156 3.566406 -18.929688 L 2.980469 -19.691406 L 3.925781 -19.859375 L 4.496094 -16.65625 L 3.550781 -16.488281 L 3.003906 -17.277344 C 4.140625 -18.066406 5.207031 -18.613281 6.210938 -18.921875 C 7.207031 -19.226562 8.207031 -19.378906 9.210938 -19.378906 C 11.097656 -19.378906 12.503906 -18.949219 13.433594 -18.09375 C 14.386719 -17.21875 14.863281 -15.671875 14.863281 -13.464844 L 14.863281 -12.519531 L 13.917969 -12.503906 C 10.628906 -12.449219 7.761719 -11.863281 5.308594 -10.75 C 4.191406 -10.238281 3.359375 -9.574219 2.816406 -8.757812 C 2.28125 -7.945312 2.011719 -6.957031 2.011719 -5.789062 C 2.011719 -4.25 2.519531 -2.988281 3.539062 -2.007812 C 4.566406 -1.015625 5.945312 -0.519531 7.675781 -0.519531 Z M 8.421875 -3.679688 C 9.3125 -3.679688 10.175781 -3.902344 11.015625 -4.355469 C 11.867188 -4.8125 12.570312 -5.421875 13.128906 -6.179688 L 13.902344 -5.613281 L 12.941406 -5.613281 L 12.941406 -10.746094 L 13.902344 -10.746094 L 13.9375 -9.785156 C 10.925781 -9.675781 8.804688 -9.292969 7.574219 -8.644531 C 7.054688 -8.371094 6.671875 -8.023438 6.425781 -7.601562 C 6.171875 -7.171875 6.046875 -6.640625 6.046875 -6.007812 C 6.046875 -5.179688 6.242188 -4.59375 6.628906 -4.242188 C 7.046875 -3.867188 7.644531 -3.679688 8.421875 -3.679688 Z M 8.421875 -1.757812 C 7.152344 -1.757812 6.125 -2.113281 5.34375 -2.816406 C 4.53125 -3.550781 4.128906 -4.613281 4.128906 -6.007812 C 4.128906 -6.984375 4.339844 -7.839844 4.769531 -8.570312 C 5.199219 -9.308594 5.835938 -9.898438 6.679688 -10.34375 C 8.167969 -11.128906 10.5625 -11.582031 13.867188 -11.703125 L 14.863281 -11.738281 L 14.863281 -5.300781 L 14.675781 -5.046875 C 13.945312 -4.050781 13.027344 -3.257812 11.921875 -2.664062 C 10.800781 -2.0625 9.632812 -1.757812 8.421875 -1.757812 Z M 8.421875 -1.757812 "/></g></g><g style="fill:#000000;fill-opacity:1;"><g transform="translate(182.5011, 56.774128)"><path style="stroke:none" d="M 13.289062 -22.886719 C 16.503906 -22.886719 18.9375 -21.9375 20.589844 -20.035156 C 22.210938 -18.175781 23.019531 -15.441406 23.019531 -11.839844 L 23.019531 0.960938 L 17.152344 0.960938 L 17.152344 -11.839844 C 17.152344 -13.917969 16.796875 -15.390625 16.082031 -16.25 C 15.410156 -17.054688 14.214844 -17.460938 12.5 -17.460938 C 11.347656 -17.460938 10.308594 -17.253906 9.378906 -16.839844 C 8.519531 -16.460938 7.878906 -15.894531 7.457031 -15.140625 L 6.621094 -15.613281 L 7.582031 -15.613281 L 7.582031 0.960938 L 1.714844 0.960938 L 1.714844 -22.449219 L 6.539062 -22.449219 L 7.125 -19.390625 L 6.183594 -19.207031 L 5.542969 -19.921875 C 6.78125 -21.03125 8.039062 -21.808594 9.316406 -22.242188 C 10.570312 -22.671875 11.894531 -22.886719 13.289062 -22.886719 Z M 13.289062 -20.96875 C 12.109375 -20.96875 10.992188 -20.789062 9.9375 -20.429688 C 8.90625 -20.074219 7.867188 -19.429688 6.824219 -18.496094 L 5.5625 -17.363281 L 4.804688 -21.308594 L 5.746094 -21.488281 L 5.746094 -20.53125 L 2.675781 -20.53125 L 2.675781 -21.488281 L 3.632812 -21.488281 L 3.632812 0 L 2.675781 0 L 2.675781 -0.960938 L 6.621094 -0.960938 L 6.621094 0 L 5.664062 0 L 5.664062 -15.863281 L 5.785156 -16.082031 C 6.417969 -17.203125 7.355469 -18.039062 8.601562 -18.59375 C 9.777344 -19.117188 11.078125 -19.378906 12.5 -19.378906 C 14.816406 -19.378906 16.503906 -18.746094 17.554688 -17.476562 C 18.566406 -16.261719 19.070312 -14.382812 19.070312 -11.839844 L 19.070312 0 L 18.113281 0 L 18.113281 -0.960938 L 22.058594 -0.960938 L 22.058594 0 L 21.101562 0 L 21.101562 -11.839844 C 21.101562 -14.964844 20.449219 -17.277344 19.144531 -18.777344 C 17.871094 -20.238281 15.921875 -20.96875 13.289062 -20.96875 Z M 13.289062 -20.96875 "/></g></g><g style="fill:#000000;fill-opacity:1;"><g transform="translate(207.009661, 56.774128)"><path style="stroke:none" d="M 12.9375 -22.886719 C 15.964844 -22.886719 18.289062 -21.875 19.914062 -19.851562 C 21.488281 -17.894531 22.273438 -15.265625 22.273438 -11.972656 L 22.273438 0.960938 L 16.40625 0.960938 L 16.40625 -11.488281 C 16.40625 -13.640625 16.042969 -15.195312 15.3125 -16.148438 C 14.640625 -17.023438 13.558594 -17.460938 12.058594 -17.460938 C 11.113281 -17.460938 10.242188 -17.242188 9.449219 -16.808594 C 8.648438 -16.371094 7.96875 -15.746094 7.414062 -14.9375 L 6.621094 -15.480469 L 7.582031 -15.480469 L 7.582031 0.960938 L 1.671875 0.960938 L 1.671875 -33.851562 L 7.582031 -33.851562 L 7.582031 -19.429688 L 6.621094 -19.429688 L 5.957031 -20.117188 C 6.890625 -21.019531 7.917969 -21.707031 9.035156 -22.175781 C 10.164062 -22.648438 11.464844 -22.886719 12.9375 -22.886719 Z M 12.9375 -20.96875 C 11.722656 -20.96875 10.667969 -20.78125 9.777344 -20.40625 C 8.878906 -20.03125 8.050781 -19.472656 7.289062 -18.738281 L 5.664062 -17.167969 L 5.664062 -32.890625 L 6.621094 -32.890625 L 6.621094 -31.933594 L 2.632812 -31.933594 L 2.632812 -32.890625 L 3.589844 -32.890625 L 3.589844 0 L 2.632812 0 L 2.632812 -0.960938 L 6.621094 -0.960938 L 6.621094 0 L 5.664062 0 L 5.664062 -15.777344 L 5.832031 -16.023438 C 6.5625 -17.085938 7.460938 -17.910156 8.53125 -18.492188 C 9.609375 -19.082031 10.785156 -19.378906 12.058594 -19.378906 C 14.1875 -19.378906 15.78125 -18.691406 16.835938 -17.3125 C 17.828125 -16.015625 18.324219 -14.074219 18.324219 -11.488281 L 18.324219 0 L 17.367188 0 L 17.367188 -0.960938 L 21.3125 -0.960938 L 21.3125 0 L 20.355469 0 L 20.355469 -11.972656 C 20.355469 -14.816406 19.707031 -17.042969 18.417969 -18.652344 C 17.175781 -20.195312 15.351562 -20.96875 12.9375 -20.96875 Z M 12.9375 -20.96875 "/></g></g><g style="fill:#ffffff;fill-opacity:1;"><g transform="translate(7.524861, 56.774128)"><path style="stroke:none" d="M 9.609375 -26.9375 L 0.65625 -26.9375 L 0.65625 -30.703125 L 22.71875 -30.703125 L 22.71875 -26.9375 L 13.765625 -26.9375 L 13.765625 0 L 9.609375 0 Z M 9.609375 -26.9375 "/></g></g><g style="fill:#ffffff;fill-opacity:1;"><g transform="translate(27.034195, 56.774128)"><path style="stroke:none" d="M 2.671875 -21.484375 L 5.921875 -21.484375 L 6.40625 -17.9375 C 7.507812 -19.3125 8.566406 -20.320312 9.578125 -20.96875 C 10.585938 -21.613281 11.648438 -21.9375 12.765625 -21.9375 C 13.117188 -21.9375 13.453125 -21.890625 13.765625 -21.796875 L 13.375 -17.453125 C 13 -17.546875 12.5625 -17.59375 12.0625 -17.59375 C 10.976562 -17.59375 9.953125 -17.347656 8.984375 -16.859375 C 8.023438 -16.378906 7.328125 -15.816406 6.890625 -15.171875 L 6.890625 0 L 2.671875 0 Z M 2.671875 -21.484375 "/></g></g><g style="fill:#ffffff;fill-opacity:1;"><g transform="translate(40.888759, 56.774128)"><path style="stroke:none" d="M 20.3125 -21.484375 L 20.3125 0 L 16.796875 0 L 16.359375 -2.375 C 15.660156 -1.40625 14.832031 -0.691406 13.875 -0.234375 C 12.925781 0.210938 11.765625 0.4375 10.390625 0.4375 C 7.816406 0.4375 5.847656 -0.34375 4.484375 -1.90625 C 3.128906 -3.46875 2.453125 -5.828125 2.453125 -8.984375 L 2.453125 -21.484375 L 6.40625 -21.484375 L 6.40625 -10.09375 C 6.40625 -7.75 6.804688 -5.988281 7.609375 -4.8125 C 8.410156 -3.644531 9.675781 -3.0625 11.40625 -3.0625 C 12.425781 -3.0625 13.378906 -3.265625 14.265625 -3.671875 C 15.160156 -4.085938 15.859375 -4.691406 16.359375 -5.484375 L 16.359375 -21.484375 Z M 20.3125 -21.484375 "/></g></g><g style="fill:#ffffff;fill-opacity:1;"><g transform="translate(63.86279, 56.774128)"><path style="stroke:none" d="M 9.25 -0.96875 L 0.3125 -21.484375 L 4.6875 -21.484375 L 11.40625 -5.53125 L 17.453125 -21.484375 L 21.84375 -21.484375 L 8.6875 10.609375 L 4.296875 10.609375 Z M 9.25 -0.96875 "/></g></g><g style="fill:#ffffff;fill-opacity:1;"><g transform="translate(85.565229, 56.774128)"><path style="stroke:none" d="M 12.984375 0.4375 C 10.523438 0.4375 8.425781 -0.0664062 6.6875 -1.078125 C 4.945312 -2.085938 3.625 -3.453125 2.71875 -5.171875 C 1.8125 -6.898438 1.359375 -8.816406 1.359375 -10.921875 C 1.359375 -12.941406 1.773438 -14.789062 2.609375 -16.46875 C 3.441406 -18.144531 4.65625 -19.472656 6.25 -20.453125 C 7.84375 -21.441406 9.722656 -21.9375 11.890625 -21.9375 C 14.640625 -21.9375 16.867188 -21.128906 18.578125 -19.515625 C 20.285156 -17.910156 21.140625 -15.6875 21.140625 -12.84375 C 21.140625 -12.113281 21.082031 -11.414062 20.96875 -10.75 L 5.390625 -10.75 C 5.660156 -7.96875 6.507812 -5.988281 7.9375 -4.8125 C 9.375 -3.644531 11.21875 -3.0625 13.46875 -3.0625 C 15.71875 -3.0625 17.78125 -3.488281 19.65625 -4.34375 L 20.171875 -1.234375 C 17.691406 -0.117188 15.296875 0.4375 12.984375 0.4375 Z M 17.0625 -13.46875 C 17.0625 -15.019531 16.625 -16.234375 15.75 -17.109375 C 14.875 -17.984375 13.554688 -18.421875 11.796875 -18.421875 C 10.097656 -18.421875 8.765625 -18.003906 7.796875 -17.171875 C 6.835938 -16.335938 6.15625 -15.101562 5.75 -13.46875 Z M 17.0625 -13.46875 "/></g></g><g style="fill:#ffffff;fill-opacity:1;"><g transform="translate(108.013137, 56.774128)"><path style="stroke:none" d="M 13.296875 -21.9375 C 19.140625 -21.9375 22.0625 -18.570312 22.0625 -11.84375 L 22.0625 0 L 18.109375 0 L 18.109375 -11.84375 C 18.109375 -14.15625 17.675781 -15.828125 16.8125 -16.859375 C 15.957031 -17.898438 14.519531 -18.421875 12.5 -18.421875 C 11.207031 -18.421875 10.035156 -18.1875 8.984375 -17.71875 C 7.929688 -17.25 7.144531 -16.546875 6.625 -15.609375 L 6.625 0 L 2.671875 0 L 2.671875 -21.484375 L 5.75 -21.484375 L 6.1875 -19.203125 C 7.320312 -20.234375 8.46875 -20.945312 9.625 -21.34375 C 10.78125 -21.738281 12.003906 -21.9375 13.296875 -21.9375 Z M 13.296875 -21.9375 "/></g></g><g style="fill:#ffffff;fill-opacity:1;"><g transform="translate(128.399276, 56.774128)"><path style="stroke:none" d="M 9.609375 -26.9375 L 0.65625 -26.9375 L 0.65625 -30.703125 L 22.71875 -30.703125 L 22.71875 -26.9375 L 13.765625 -26.9375 L 13.765625 0 L 9.609375 0 Z M 9.609375 -26.9375 "/></g></g><g style="fill:#ffffff;fill-opacity:1;"><g transform="translate(147.908609, 56.774128)"><path style="stroke:none" d="M 2.671875 -21.484375 L 5.921875 -21.484375 L 6.40625 -17.9375 C 7.507812 -19.3125 8.566406 -20.320312 9.578125 -20.96875 C 10.585938 -21.613281 11.648438 -21.9375 12.765625 -21.9375 C 13.117188 -21.9375 13.453125 -21.890625 13.765625 -21.796875 L 13.375 -17.453125 C 13 -17.546875 12.5625 -17.59375 12.0625 -17.59375 C 10.976562 -17.59375 9.953125 -17.347656 8.984375 -16.859375 C 8.023438 -16.378906 7.328125 -15.816406 6.890625 -15.171875 L 6.890625 0 L 2.671875 0 Z M 2.671875 -21.484375 "/></g></g><g style="fill:#ffffff;fill-opacity:1;"><g transform="translate(161.45618, 56.774128)"><path style="stroke:none" d="M 7.671875 0.4375 C 5.679688 0.4375 4.078125 -0.144531 2.859375 -1.3125 C 1.648438 -2.476562 1.046875 -3.972656 1.046875 -5.796875 C 1.046875 -8.515625 2.332031 -10.457031 4.90625 -11.625 C 7.476562 -12.789062 10.476562 -13.40625 13.90625 -13.46875 C 13.90625 -15.394531 13.53125 -16.703125 12.78125 -17.390625 C 12.039062 -18.078125 10.847656 -18.421875 9.203125 -18.421875 C 8.296875 -18.421875 7.390625 -18.28125 6.484375 -18 C 5.578125 -17.726562 4.597656 -17.222656 3.546875 -16.484375 L 2.984375 -19.6875 C 3.859375 -20.363281 4.9375 -20.90625 6.21875 -21.3125 C 7.507812 -21.726562 8.859375 -21.9375 10.265625 -21.9375 C 12.109375 -21.9375 13.578125 -21.613281 14.671875 -20.96875 C 15.765625 -20.320312 16.566406 -19.253906 17.078125 -17.765625 C 17.585938 -16.273438 17.84375 -14.226562 17.84375 -11.625 L 17.84375 -7.234375 C 17.84375 -6.066406 17.894531 -5.179688 18 -4.578125 C 18.101562 -3.984375 18.328125 -3.523438 18.671875 -3.203125 C 19.023438 -2.878906 19.570312 -2.71875 20.3125 -2.71875 L 20.703125 -2.71875 L 20.09375 0.4375 L 19.78125 0.4375 C 18.550781 0.4375 17.582031 0.316406 16.875 0.078125 C 16.175781 -0.148438 15.644531 -0.484375 15.28125 -0.921875 C 14.914062 -1.359375 14.570312 -1.957031 14.25 -2.71875 C 12.4375 -0.613281 10.242188 0.4375 7.671875 0.4375 Z M 8.421875 -2.71875 C 9.472656 -2.71875 10.488281 -2.976562 11.46875 -3.5 C 12.445312 -4.03125 13.257812 -4.734375 13.90625 -5.609375 L 13.90625 -10.75 C 10.75 -10.625 8.488281 -10.203125 7.125 -9.484375 C 5.769531 -8.773438 5.09375 -7.617188 5.09375 -6.015625 C 5.09375 -4.898438 5.390625 -4.070312 5.984375 -3.53125 C 6.585938 -2.988281 7.398438 -2.71875 8.421875 -2.71875 Z M 8.421875 -2.71875 "/></g></g><g style="fill:#ffffff;fill-opacity:1;"><g transform="translate(182.5011, 56.774128)"><path style="stroke:none" d="M 13.296875 -21.9375 C 19.140625 -21.9375 22.0625 -18.570312 22.0625 -11.84375 L 22.0625 0 L 18.109375 0 L 18.109375 -11.84375 C 18.109375 -14.15625 17.675781 -15.828125 16.8125 -16.859375 C 15.957031 -17.898438 14.519531 -18.421875 12.5 -18.421875 C 11.207031 -18.421875 10.035156 -18.1875 8.984375 -17.71875 C 7.929688 -17.25 7.144531 -16.546875 6.625 -15.609375 L 6.625 0 L 2.671875 0 L 2.671875 -21.484375 L 5.75 -21.484375 L 6.1875 -19.203125 C 7.320312 -20.234375 8.46875 -20.945312 9.625 -21.34375 C 10.78125 -21.738281 12.003906 -21.9375 13.296875 -21.9375 Z M 13.296875 -21.9375 "/></g></g><g style="fill:#ffffff;fill-opacity:1;"><g transform="translate(207.009661, 56.774128)"><path style="stroke:none" d="M 12.9375 -21.9375 C 15.65625 -21.9375 17.726562 -21.039062 19.15625 -19.25 C 20.59375 -17.46875 21.3125 -15.039062 21.3125 -11.96875 L 21.3125 0 L 17.375 0 L 17.375 -11.484375 C 17.375 -13.859375 16.941406 -15.609375 16.078125 -16.734375 C 15.210938 -17.859375 13.875 -18.421875 12.0625 -18.421875 C 10.945312 -18.421875 9.921875 -18.164062 8.984375 -17.65625 C 8.054688 -17.144531 7.269531 -16.421875 6.625 -15.484375 L 6.625 0 L 2.625 0 L 2.625 -32.890625 L 6.625 -32.890625 L 6.625 -19.4375 C 7.46875 -20.25 8.394531 -20.867188 9.40625 -21.296875 C 10.414062 -21.722656 11.59375 -21.9375 12.9375 -21.9375 Z M 12.9375 -21.9375 "/></g></g><g style="fill:#a6a6a6;fill-opacity:1;"><g transform="translate(232.851315, 56.086944)"><path style="stroke:none" d="M 1.007812 -0.109375 L 1.007812 -28.691406 C 1.007812 -29.363281 1.207031 -29.972656 1.601562 -30.527344 C 2 -31.082031 2.511719 -31.46875 3.148438 -31.691406 L 3.164062 -31.699219 L 3.183594 -31.703125 C 3.816406 -31.894531 4.453125 -31.886719 5.097656 -31.679688 C 5.746094 -31.476562 6.273438 -31.105469 6.683594 -30.566406 L 21.683594 -10.148438 L 21.054688 -9.683594 L 20.269531 -9.683594 L 20.269531 -31.84375 L 26.570312 -31.84375 L 26.570312 -2.476562 C 26.570312 -1.800781 26.363281 -1.183594 25.949219 -0.625 C 25.535156 -0.0664062 25.007812 0.308594 24.363281 0.5 L 24.136719 -0.25 L 24.488281 0.449219 C 24.1875 0.601562 23.832031 0.675781 23.417969 0.675781 C 22.398438 0.675781 21.558594 0.253906 20.898438 -0.59375 L 20.894531 -0.601562 L 5.894531 -21.019531 L 6.527344 -21.484375 L 7.3125 -21.484375 L 7.3125 0.675781 L 1.007812 0.675781 Z M 2.578125 -0.109375 L 1.792969 -0.109375 L 1.792969 -0.890625 L 6.527344 -0.890625 L 6.527344 -0.109375 L 5.742188 -0.109375 L 5.742188 -23.875 L 22.152344 -1.539062 L 21.519531 -1.074219 L 22.136719 -1.558594 C 22.484375 -1.113281 22.910156 -0.890625 23.417969 -0.890625 C 23.582031 -0.890625 23.707031 -0.914062 23.785156 -0.953125 L 23.847656 -0.984375 L 23.910156 -1.003906 C 24.222656 -1.097656 24.484375 -1.28125 24.691406 -1.5625 C 24.898438 -1.839844 25.003906 -2.144531 25.003906 -2.476562 L 25.003906 -31.058594 L 25.785156 -31.058594 L 25.785156 -30.273438 L 21.054688 -30.273438 L 21.054688 -31.058594 L 21.835938 -31.058594 L 21.835938 -7.289062 L 5.4375 -29.613281 C 5.226562 -29.890625 4.957031 -30.078125 4.621094 -30.1875 C 4.285156 -30.292969 3.957031 -30.296875 3.632812 -30.199219 L 3.40625 -30.953125 L 3.667969 -30.210938 C 3.34375 -30.097656 3.082031 -29.898438 2.878906 -29.617188 C 2.679688 -29.335938 2.578125 -29.027344 2.578125 -28.691406 Z M 2.578125 -0.109375 "/></g></g><g style="fill:#a6a6a6;fill-opacity:1;"><g transform="translate(264.480391, 56.086944)"><path style="stroke:none" d="M 13.269531 1.25 C 11.589844 1.25 10.007812 0.949219 8.527344 0.351562 C 7.046875 -0.25 5.746094 -1.085938 4.621094 -2.15625 C 3.496094 -3.230469 2.613281 -4.472656 1.976562 -5.878906 C 1.332031 -7.296875 1.007812 -8.816406 1.007812 -10.4375 L 1.007812 -30.984375 L 7.3125 -30.984375 L 7.3125 -10.4375 C 7.3125 -9.445312 7.574219 -8.546875 8.097656 -7.746094 C 8.636719 -6.921875 9.359375 -6.261719 10.261719 -5.761719 C 11.160156 -5.265625 12.160156 -5.015625 13.269531 -5.015625 C 14.378906 -5.015625 15.382812 -5.265625 16.28125 -5.761719 C 17.183594 -6.261719 17.902344 -6.921875 18.441406 -7.746094 C 18.964844 -8.546875 19.226562 -9.445312 19.226562 -10.4375 L 19.226562 -30.984375 L 25.496094 -30.984375 L 25.496094 -10.4375 C 25.496094 -8.816406 25.171875 -7.296875 24.527344 -5.878906 C 23.890625 -4.472656 23.015625 -3.234375 21.902344 -2.160156 C 20.789062 -1.085938 19.492188 -0.25 18.011719 0.351562 C 16.53125 0.949219 14.949219 1.25 13.269531 1.25 Z M 13.269531 -0.320312 C 14.746094 -0.320312 16.128906 -0.582031 17.421875 -1.105469 C 18.714844 -1.628906 19.84375 -2.355469 20.8125 -3.289062 C 21.78125 -4.226562 22.542969 -5.304688 23.101562 -6.53125 C 23.652344 -7.742188 23.925781 -9.042969 23.925781 -10.4375 L 23.925781 -30.199219 L 24.710938 -30.199219 L 24.710938 -29.414062 L 20.011719 -29.414062 L 20.011719 -30.199219 L 20.796875 -30.199219 L 20.796875 -10.4375 C 20.796875 -9.132812 20.449219 -7.949219 19.753906 -6.886719 C 19.074219 -5.847656 18.167969 -5.011719 17.039062 -4.386719 C 15.90625 -3.761719 14.648438 -3.449219 13.269531 -3.449219 C 11.890625 -3.449219 10.636719 -3.761719 9.5 -4.386719 C 8.371094 -5.011719 7.464844 -5.847656 6.785156 -6.886719 C 6.089844 -7.949219 5.742188 -9.132812 5.742188 -10.4375 L 5.742188 -30.199219 L 6.527344 -30.199219 L 6.527344 -29.414062 L 1.792969 -29.414062 L 1.792969 -30.199219 L 2.578125 -30.199219 L 2.578125 -10.4375 C 2.578125 -9.042969 2.851562 -7.742188 3.402344 -6.53125 C 3.960938 -5.304688 4.726562 -4.226562 5.707031 -3.292969 C 6.6875 -2.359375 7.824219 -1.628906 9.117188 -1.105469 C 10.410156 -0.582031 11.792969 -0.320312 13.269531 -0.320312 Z M 13.269531 -0.320312 "/></g></g><g style="fill:#a6a6a6;fill-opacity:1;"><g transform="translate(295.033687, 56.086944)"><path style="stroke:none" d="M 1.007812 0.285156 L 1.007812 -31.199219 L 12.375 -31.199219 C 13.949219 -31.199219 15.421875 -30.941406 16.789062 -30.429688 C 18.15625 -29.921875 19.367188 -29.210938 20.417969 -28.300781 C 21.480469 -27.378906 22.308594 -26.3125 22.90625 -25.089844 C 23.507812 -23.859375 23.808594 -22.546875 23.808594 -21.160156 C 23.808594 -19.640625 23.449219 -18.21875 22.726562 -16.894531 C 22.015625 -15.585938 21.046875 -14.46875 19.824219 -13.542969 C 18.605469 -12.617188 17.203125 -11.949219 15.617188 -11.542969 L 15.421875 -12.300781 L 16.078125 -12.730469 L 21.890625 -3.800781 C 22.367188 -3.101562 22.515625 -2.320312 22.339844 -1.457031 C 22.167969 -0.597656 21.710938 0.0703125 20.980469 0.550781 C 20.441406 0.898438 19.867188 1.070312 19.257812 1.070312 C 18.175781 1.070312 17.300781 0.601562 16.644531 -0.339844 L 16.636719 -0.351562 L 9.671875 -11.085938 L 10.328125 -11.511719 L 9.773438 -10.957031 C 9.582031 -11.148438 9.445312 -11.394531 9.359375 -11.691406 L 10.113281 -11.90625 L 10.113281 -11.121094 L 6.527344 -11.121094 L 6.527344 -11.90625 L 7.3125 -11.90625 L 7.3125 1.070312 L 1.007812 1.070312 Z M 2.578125 0.285156 L 1.792969 0.285156 L 1.792969 -0.496094 L 6.527344 -0.496094 L 6.527344 0.285156 L 5.742188 0.285156 L 5.742188 -12.691406 L 10.707031 -12.691406 L 10.867188 -12.121094 C 10.875 -12.09375 10.882812 -12.074219 10.890625 -12.058594 C 10.890625 -12.058594 10.890625 -12.0625 10.882812 -12.066406 L 10.941406 -12.007812 L 17.945312 -1.214844 L 17.285156 -0.789062 L 17.929688 -1.238281 C 18.277344 -0.746094 18.71875 -0.496094 19.257812 -0.496094 C 19.558594 -0.496094 19.847656 -0.585938 20.121094 -0.765625 C 20.488281 -1.003906 20.714844 -1.339844 20.804688 -1.769531 C 20.890625 -2.199219 20.816406 -2.589844 20.574219 -2.945312 L 14.167969 -12.789062 L 15.226562 -13.0625 C 16.605469 -13.417969 17.824219 -13.996094 18.875 -14.792969 C 19.921875 -15.585938 20.746094 -16.535156 21.351562 -17.644531 C 21.945312 -18.734375 22.242188 -19.90625 22.242188 -21.160156 C 22.242188 -22.304688 21.992188 -23.386719 21.496094 -24.402344 C 20.992188 -25.429688 20.292969 -26.332031 19.390625 -27.113281 C 18.480469 -27.898438 17.433594 -28.515625 16.242188 -28.960938 C 15.050781 -29.40625 13.761719 -29.628906 12.375 -29.628906 L 1.792969 -29.628906 L 1.792969 -30.414062 L 2.578125 -30.414062 Z M 6.527344 -17.425781 L 12.375 -17.425781 C 13.359375 -17.425781 14.242188 -17.605469 15.023438 -17.964844 C 15.792969 -18.316406 16.410156 -18.785156 16.867188 -19.367188 C 17.292969 -19.90625 17.507812 -20.503906 17.507812 -21.160156 C 17.507812 -21.816406 17.292969 -22.414062 16.867188 -22.953125 C 16.410156 -23.535156 15.792969 -24.003906 15.023438 -24.355469 C 14.242188 -24.714844 13.359375 -24.894531 12.375 -24.894531 L 6.527344 -24.894531 L 6.527344 -25.679688 L 7.3125 -25.679688 L 7.3125 -16.640625 L 6.527344 -16.640625 Z M 5.742188 -15.855469 L 5.742188 -26.464844 L 12.375 -26.464844 C 13.585938 -26.464844 14.6875 -26.238281 15.679688 -25.78125 C 16.675781 -25.324219 17.484375 -24.703125 18.101562 -23.925781 C 18.75 -23.101562 19.074219 -22.179688 19.074219 -21.160156 C 19.074219 -20.140625 18.75 -19.21875 18.101562 -18.398438 C 17.484375 -17.617188 16.675781 -16.996094 15.679688 -16.539062 C 14.6875 -16.082031 13.585938 -15.855469 12.375 -15.855469 Z M 5.742188 -15.855469 "/></g></g><g style="fill:#a6a6a6;fill-opacity:1;"><g transform="translate(323.901601, 56.086944)"><path style="stroke:none" d="M 13.269531 1.25 C 11.589844 1.25 10.007812 0.949219 8.527344 0.351562 C 7.046875 -0.25 5.746094 -1.085938 4.621094 -2.15625 C 3.496094 -3.230469 2.613281 -4.472656 1.976562 -5.878906 C 1.332031 -7.296875 1.007812 -8.816406 1.007812 -10.4375 L 1.007812 -30.984375 L 7.3125 -30.984375 L 7.3125 -10.4375 C 7.3125 -9.445312 7.574219 -8.546875 8.097656 -7.746094 C 8.636719 -6.921875 9.359375 -6.261719 10.261719 -5.761719 C 11.160156 -5.265625 12.160156 -5.015625 13.269531 -5.015625 C 14.378906 -5.015625 15.382812 -5.265625 16.28125 -5.761719 C 17.183594 -6.261719 17.902344 -6.921875 18.441406 -7.746094 C 18.964844 -8.546875 19.226562 -9.445312 19.226562 -10.4375 L 19.226562 -30.984375 L 25.496094 -30.984375 L 25.496094 -10.4375 C 25.496094 -8.816406 25.171875 -7.296875 24.527344 -5.878906 C 23.890625 -4.472656 23.015625 -3.234375 21.902344 -2.160156 C 20.789062 -1.085938 19.492188 -0.25 18.011719 0.351562 C 16.53125 0.949219 14.949219 1.25 13.269531 1.25 Z M 13.269531 -0.320312 C 14.746094 -0.320312 16.128906 -0.582031 17.421875 -1.105469 C 18.714844 -1.628906 19.84375 -2.355469 20.8125 -3.289062 C 21.78125 -4.226562 22.542969 -5.304688 23.101562 -6.53125 C 23.652344 -7.742188 23.925781 -9.042969 23.925781 -10.4375 L 23.925781 -30.199219 L 24.710938 -30.199219 L 24.710938 -29.414062 L 20.011719 -29.414062 L 20.011719 -30.199219 L 20.796875 -30.199219 L 20.796875 -10.4375 C 20.796875 -9.132812 20.449219 -7.949219 19.753906 -6.886719 C 19.074219 -5.847656 18.167969 -5.011719 17.039062 -4.386719 C 15.90625 -3.761719 14.648438 -3.449219 13.269531 -3.449219 C 11.890625 -3.449219 10.636719 -3.761719 9.5 -4.386719 C 8.371094 -5.011719 7.464844 -5.847656 6.785156 -6.886719 C 6.089844 -7.949219 5.742188 -9.132812 5.742188 -10.4375 L 5.742188 -30.199219 L 6.527344 -30.199219 L 6.527344 -29.414062 L 1.792969 -29.414062 L 1.792969 -30.199219 L 2.578125 -30.199219 L 2.578125 -10.4375 C 2.578125 -9.042969 2.851562 -7.742188 3.402344 -6.53125 C 3.960938 -5.304688 4.726562 -4.226562 5.707031 -3.292969 C 6.6875 -2.359375 7.824219 -1.628906 9.117188 -1.105469 C 10.410156 -0.582031 11.792969 -0.320312 13.269531 -0.320312 Z M 13.269531 -0.320312 "/></g></g><g style="fill:#8c52ff;fill-opacity:1;"><g transform="translate(232.851315, 56.086944)"><path style="stroke:none" d="M 1.796875 -0.109375 L 1.796875 -28.6875 C 1.796875 -29.1875 1.941406 -29.644531 2.234375 -30.0625 C 2.535156 -30.488281 2.925781 -30.785156 3.40625 -30.953125 C 3.882812 -31.085938 4.367188 -31.078125 4.859375 -30.921875 C 5.347656 -30.773438 5.75 -30.5 6.0625 -30.09375 L 21.046875 -9.6875 L 21.046875 -31.046875 L 25.78125 -31.046875 L 25.78125 -2.46875 C 25.78125 -1.96875 25.625 -1.507812 25.3125 -1.09375 C 25 -0.675781 24.609375 -0.394531 24.140625 -0.25 C 23.941406 -0.15625 23.703125 -0.109375 23.421875 -0.109375 C 22.648438 -0.109375 22.015625 -0.429688 21.515625 -1.078125 L 6.53125 -21.484375 L 6.53125 -0.109375 Z M 1.796875 -0.109375 "/></g></g><g style="fill:#8c52ff;fill-opacity:1;"><g transform="translate(264.480391, 56.086944)"><path style="stroke:none" d="M 13.265625 0.46875 C 11.691406 0.46875 10.207031 0.1875 8.8125 -0.375 C 7.425781 -0.9375 6.207031 -1.71875 5.15625 -2.71875 C 4.101562 -3.726562 3.28125 -4.890625 2.6875 -6.203125 C 2.09375 -7.515625 1.796875 -8.925781 1.796875 -10.4375 L 1.796875 -30.1875 L 6.53125 -30.1875 L 6.53125 -10.4375 C 6.53125 -9.289062 6.832031 -8.25 7.4375 -7.3125 C 8.050781 -6.382812 8.863281 -5.640625 9.875 -5.078125 C 10.894531 -4.515625 12.023438 -4.234375 13.265625 -4.234375 C 14.503906 -4.234375 15.632812 -4.515625 16.65625 -5.078125 C 17.675781 -5.640625 18.488281 -6.382812 19.09375 -7.3125 C 19.707031 -8.25 20.015625 -9.289062 20.015625 -10.4375 L 20.015625 -30.1875 L 24.703125 -30.1875 L 24.703125 -10.4375 C 24.703125 -8.925781 24.40625 -7.515625 23.8125 -6.203125 C 23.21875 -4.890625 22.398438 -3.726562 21.359375 -2.71875 C 20.316406 -1.71875 19.101562 -0.9375 17.71875 -0.375 C 16.332031 0.1875 14.847656 0.46875 13.265625 0.46875 Z M 13.265625 0.46875 "/></g></g><g style="fill:#8c52ff;fill-opacity:1;"><g transform="translate(295.033687, 56.086944)"><path style="stroke:none" d="M 1.796875 0.28125 L 1.796875 -30.40625 L 12.375 -30.40625 C 13.851562 -30.40625 15.234375 -30.164062 16.515625 -29.6875 C 17.796875 -29.207031 18.925781 -28.539062 19.90625 -27.6875 C 20.882812 -26.84375 21.644531 -25.859375 22.1875 -24.734375 C 22.738281 -23.617188 23.015625 -22.425781 23.015625 -21.15625 C 23.015625 -19.769531 22.6875 -18.472656 22.03125 -17.265625 C 21.375 -16.054688 20.476562 -15.019531 19.34375 -14.15625 C 18.207031 -13.300781 16.898438 -12.679688 15.421875 -12.296875 L 21.234375 -3.375 C 21.585938 -2.84375 21.695312 -2.253906 21.5625 -1.609375 C 21.4375 -0.960938 21.097656 -0.460938 20.546875 -0.109375 C 20.140625 0.148438 19.707031 0.28125 19.25 0.28125 C 18.4375 0.28125 17.78125 -0.0703125 17.28125 -0.78125 L 10.328125 -11.515625 C 10.234375 -11.609375 10.160156 -11.738281 10.109375 -11.90625 L 6.53125 -11.90625 L 6.53125 0.28125 Z M 6.53125 -16.640625 L 12.375 -16.640625 C 13.46875 -16.640625 14.457031 -16.84375 15.34375 -17.25 C 16.226562 -17.65625 16.9375 -18.195312 17.46875 -18.875 C 18.007812 -19.5625 18.28125 -20.320312 18.28125 -21.15625 C 18.28125 -21.988281 18.007812 -22.742188 17.46875 -23.421875 C 16.9375 -24.109375 16.226562 -24.65625 15.34375 -25.0625 C 14.457031 -25.46875 13.46875 -25.671875 12.375 -25.671875 L 6.53125 -25.671875 Z M 6.53125 -16.640625 "/></g></g><g style="fill:#8c52ff;fill-opacity:1;"><g transform="translate(323.901601, 56.086944)"><path style="stroke:none" d="M 13.265625 0.46875 C 11.691406 0.46875 10.207031 0.1875 8.8125 -0.375 C 7.425781 -0.9375 6.207031 -1.71875 5.15625 -2.71875 C 4.101562 -3.726562 3.28125 -4.890625 2.6875 -6.203125 C 2.09375 -7.515625 1.796875 -8.925781 1.796875 -10.4375 L 1.796875 -30.1875 L 6.53125 -30.1875 L 6.53125 -10.4375 C 6.53125 -9.289062 6.832031 -8.25 7.4375 -7.3125 C 8.050781 -6.382812 8.863281 -5.640625 9.875 -5.078125 C 10.894531 -4.515625 12.023438 -4.234375 13.265625 -4.234375 C 14.503906 -4.234375 15.632812 -4.515625 16.65625 -5.078125 C 17.675781 -5.640625 18.488281 -6.382812 19.09375 -7.3125 C 19.707031 -8.25 20.015625 -9.289062 20.015625 -10.4375 L 20.015625 -30.1875 L 24.703125 -30.1875 L 24.703125 -10.4375 C 24.703125 -8.925781 24.40625 -7.515625 23.8125 -6.203125 C 23.21875 -4.890625 22.398438 -3.726562 21.359375 -2.71875 C 20.316406 -1.71875 19.101562 -0.9375 17.71875 -0.375 C 16.332031 0.1875 14.847656 0.46875 13.265625 0.46875 Z M 13.265625 0.46875 "/></g></g></g></svg>