<svg xmlns="http://www.w3.org/2000/svg" xmlns:xlink="http://www.w3.org/1999/xlink" width="500" zoomAndPan="magnify" viewBox="0 0 375 374.999991" height="500" preserveAspectRatio="xMidYMid meet" version="1.2"><defs><clipPath id="2c7ac6dcfc"><path d="M 152.808594 216.777344 L 211.308594 216.777344 L 211.308594 267.777344 L 152.808594 267.777344 Z M 152.808594 216.777344 "/></clipPath></defs><g id="28ebe8c52a"><g clip-rule="nonzero" clip-path="url(#2c7ac6dcfc)"><path style=" stroke:none;fill-rule:nonzero;fill:#8c52ff;fill-opacity:1;" d="M 211.308594 237.09375 C 211.308594 231.003906 206.480469 226.03125 200.488281 225.886719 C 199.480469 220.746094 194.980469 216.851562 189.59375 216.851562 C 186.652344 216.851562 183.976562 218.011719 181.988281 219.898438 C 180 218.011719 177.324219 216.851562 174.386719 216.851562 C 168.996094 216.851562 164.492188 220.746094 163.492188 225.894531 C 157.5625 226.113281 152.808594 231.054688 152.808594 237.09375 C 152.808594 240.835938 154.636719 244.15625 157.441406 246.191406 C 157.3125 247.03125 157.25 247.882812 157.25 248.746094 C 157.25 254.265625 159.992188 259.152344 164.976562 262.511719 C 169.492188 265.550781 175.683594 267.226562 182.414062 267.226562 C 189.144531 267.226562 195.335938 265.550781 199.851562 262.511719 C 204.835938 259.152344 207.582031 254.265625 207.582031 248.746094 C 207.582031 247.714844 207.488281 246.699219 207.304688 245.703125 C 209.75 243.644531 211.308594 240.550781 211.308594 237.09375 Z M 201.453125 243.320312 C 201.054688 243.398438 200.640625 243.445312 200.21875 243.445312 C 197.179688 243.445312 194.640625 241.230469 194.078125 238.3125 C 194.765625 238.003906 195.414062 237.628906 196.019531 237.195312 C 198.417969 238.859375 200.300781 240.953125 201.453125 243.320312 Z M 189.59375 221.707031 C 192.628906 221.707031 195.167969 223.917969 195.730469 226.839844 C 194.210938 227.519531 192.871094 228.53125 191.800781 229.785156 C 189.785156 229.132812 187.664062 228.6875 185.480469 228.476562 C 185.484375 228.335938 185.488281 228.199219 185.488281 228.058594 C 185.488281 226.644531 185.226562 225.289062 184.75 224.042969 C 185.898438 222.617188 187.640625 221.707031 189.59375 221.707031 Z M 189.496094 234.15625 C 189.472656 234.242188 189.453125 234.328125 189.429688 234.414062 C 188.289062 234.386719 187.222656 234.042969 186.3125 233.46875 C 187.40625 233.632812 188.472656 233.863281 189.496094 234.15625 Z M 174.386719 221.707031 C 176.332031 221.707031 178.078125 222.617188 179.222656 224.042969 C 178.75 225.289062 178.488281 226.644531 178.488281 228.058594 C 178.488281 228.230469 178.492188 228.402344 178.5 228.574219 C 176.414062 228.835938 174.394531 229.304688 172.476562 229.972656 C 171.351562 228.59375 169.910156 227.492188 168.261719 226.78125 C 168.84375 223.890625 171.367188 221.707031 174.386719 221.707031 Z M 177.304688 233.679688 C 176.515625 234.101562 175.632812 234.363281 174.691406 234.410156 C 174.6875 234.390625 174.683594 234.371094 174.679688 234.351562 C 175.527344 234.085938 176.402344 233.859375 177.304688 233.679688 Z M 168.394531 237.492188 C 168.914062 237.828125 169.460938 238.125 170.035156 238.371094 C 169.449219 241.261719 166.925781 243.445312 163.90625 243.445312 C 163.710938 243.445312 163.519531 243.433594 163.328125 243.414062 C 164.410156 241.148438 166.160156 239.128906 168.394531 237.492188 Z M 157.660156 237.09375 C 157.660156 233.691406 160.300781 230.90625 163.605469 230.742188 C 163.890625 231.914062 164.359375 233.011719 164.976562 234.007812 C 164.929688 234.046875 164.878906 234.082031 164.828125 234.121094 C 162.289062 236.132812 160.34375 238.5 159.058594 241.09375 C 158.1875 240 157.660156 238.609375 157.660156 237.09375 Z M 197.140625 258.484375 C 193.417969 260.992188 188.1875 262.375 182.414062 262.375 C 176.640625 262.375 171.410156 260.992188 167.691406 258.484375 C 165.140625 256.769531 162.101562 253.683594 162.101562 248.746094 C 162.101562 248.546875 162.109375 248.347656 162.117188 248.148438 C 162.699219 248.246094 163.296875 248.296875 163.90625 248.296875 C 169.296875 248.296875 173.800781 244.402344 174.804688 239.257812 C 177.578125 239.15625 180.09375 238.019531 181.988281 236.21875 C 183.914062 238.050781 186.488281 239.195312 189.320312 239.265625 C 190.324219 244.40625 194.828125 248.296875 200.21875 248.296875 C 201.074219 248.296875 201.90625 248.199219 202.703125 248.011719 C 202.71875 248.253906 202.726562 248.5 202.726562 248.746094 C 202.726562 253.683594 199.6875 256.769531 197.140625 258.484375 Z M 205.472656 240.515625 C 204.191406 238.148438 202.351562 235.980469 200 234.121094 C 199.761719 233.929688 199.511719 233.746094 199.265625 233.5625 C 199.753906 232.6875 200.132812 231.738281 200.375 230.738281 C 203.742188 230.824219 206.457031 233.640625 206.457031 237.09375 C 206.457031 238.351562 206.09375 239.527344 205.472656 240.515625 Z M 205.472656 240.515625 "/></g><path style=" stroke:none;fill-rule:nonzero;fill:#ffffff;fill-opacity:1;" d="M 209.597656 237.09375 C 209.597656 231.855469 205.390625 227.597656 200.21875 227.597656 C 199.804688 227.597656 199.390625 227.625 198.976562 227.679688 C 198.78125 222.621094 194.644531 218.566406 189.59375 218.566406 C 186.5625 218.566406 183.742188 220.042969 181.988281 222.488281 C 180.234375 220.042969 177.414062 218.566406 174.386719 218.566406 C 169.339844 218.566406 165.210938 222.613281 165.003906 227.664062 C 164.640625 227.617188 164.273438 227.597656 163.90625 227.597656 C 158.734375 227.597656 154.523438 231.855469 154.523438 237.09375 C 154.523438 240.527344 156.394531 243.71875 159.339844 245.382812 C 159.089844 246.492188 158.960938 247.617188 158.960938 248.746094 C 158.960938 253.746094 161.375 258.015625 165.9375 261.089844 C 170.171875 263.941406 176.023438 265.515625 182.414062 265.515625 C 188.808594 265.515625 194.660156 263.941406 198.894531 261.089844 C 203.457031 258.015625 205.867188 253.746094 205.867188 248.746094 C 205.867188 247.484375 205.710938 246.226562 205.398438 245 C 208 243.25 209.597656 240.269531 209.597656 237.09375 Z M 209.597656 237.09375 "/><path style=" stroke:none;fill-rule:nonzero;fill:#8c52ff;fill-opacity:1;" d="M 191.199219 245.851562 C 190.039062 242.792969 186.550781 239.835938 182.421875 239.835938 C 178.261719 239.835938 174.753906 242.835938 173.617188 245.914062 C 169.207031 247.648438 167.574219 251.625 168.378906 254.558594 C 169.253906 257.734375 173.085938 258.367188 178.355469 256.910156 C 179.945312 256.476562 181.335938 255.839844 182.488281 255.078125 C 183.636719 255.839844 185.03125 256.476562 186.621094 256.910156 C 191.886719 258.367188 195.714844 257.734375 196.59375 254.558594 C 197.417969 251.589844 195.730469 247.554688 191.199219 245.851562 Z M 191.199219 245.851562 "/><path style=" stroke:none;fill-rule:nonzero;fill:#8c52ff;fill-opacity:1;" d="M 176.957031 235.878906 C 179.527344 235.085938 180.984375 232.375 180.203125 229.832031 C 179.414062 227.289062 176.148438 224.085938 173.570312 224.878906 C 171.003906 225.667969 170.097656 230.160156 170.882812 232.703125 C 171.664062 235.25 174.386719 236.671875 176.957031 235.878906 Z M 176.957031 235.878906 "/><path style=" stroke:none;fill-rule:nonzero;fill:#8c52ff;fill-opacity:1;" d="M 170.394531 237.128906 C 169.617188 234.585938 166.34375 231.378906 163.773438 232.175781 C 161.195312 232.96875 160.292969 237.457031 161.078125 240 C 161.855469 242.546875 164.585938 243.964844 167.15625 243.171875 C 169.730469 242.378906 171.183594 239.675781 170.394531 237.128906 Z M 170.394531 237.128906 "/><path style=" stroke:none;fill-rule:nonzero;fill:#8c52ff;fill-opacity:1;" d="M 187.59375 235.878906 C 190.164062 236.671875 192.886719 235.25 193.671875 232.703125 C 194.449219 230.160156 193.550781 225.667969 190.980469 224.878906 C 188.40625 224.085938 185.136719 227.289062 184.351562 229.832031 C 183.566406 232.375 185.019531 235.085938 187.59375 235.878906 Z M 187.59375 235.878906 "/><path style=" stroke:none;fill-rule:nonzero;fill:#8c52ff;fill-opacity:1;" d="M 200.785156 232.175781 C 198.214844 231.378906 194.941406 234.585938 194.152344 237.128906 C 193.371094 239.675781 194.824219 242.378906 197.402344 243.171875 C 199.96875 243.964844 202.699219 242.546875 203.480469 240 C 204.265625 237.457031 203.355469 232.96875 200.785156 232.175781 Z M 200.785156 232.175781 "/><path style=" stroke:none;fill-rule:nonzero;fill:#8c52ff;fill-opacity:1;" d="M 361.507812 319.800781 C 351.277344 337.183594 309.046875 330.40625 286.082031 323.042969 C 271.902344 318.5 261.152344 312.464844 254.457031 308.226562 C 260.578125 312.382812 265.117188 316.421875 268.117188 319.324219 C 275.746094 326.726562 294.550781 347.441406 283.953125 358.285156 C 276.191406 366.238281 261.46875 364.207031 248.113281 360.503906 C 239.96875 358.246094 232.332031 355.375 227.089844 353.765625 C 225.003906 353.125 222.925781 352.472656 220.847656 351.792969 C 195.957031 343.777344 171.699219 333.8125 147.554688 323.804688 C 124.859375 314.40625 106.804688 306.925781 92.691406 300.316406 C 74.039062 291.585938 62.269531 284.371094 55.757812 276.226562 C 55.757812 276.21875 55.757812 276.21875 55.757812 276.21875 C 55.160156 275.457031 54.601562 274.699219 54.082031 273.921875 C 37.597656 249.097656 40.257812 219.574219 48.96875 183.386719 C 51.722656 171.980469 55.0625 159.921875 58.597656 147.132812 C 62.359375 133.535156 66.328125 119.121094 70.027344 103.816406 C 79.675781 63.867188 106.585938 8.476562 118.515625 11.234375 C 123.554688 12.398438 125.289062 23.835938 125.949219 33.535156 C 136.96875 33.808594 147.976562 34.085938 158.992188 34.359375 C 163.273438 22.347656 168.667969 10.789062 173.859375 11.234375 C 182.789062 11.984375 182.839844 46.808594 195.34375 94.660156 C 201.402344 117.882812 212.023438 158.535156 244.078125 189.664062 C 246.902344 192.402344 249.335938 194.539062 251.882812 196.617188 L 252.117188 196.804688 C 255.464844 199.523438 259.058594 202.167969 264.039062 205.96875 L 268.027344 209.035156 C 275.6875 214.980469 286.332031 223.523438 302.710938 237.5625 C 311.980469 245.515625 322.148438 253.757812 328.597656 264.3125 C 332.601562 270.863281 337.996094 286.289062 329.042969 291.507812 C 321.609375 295.835938 307.890625 286.433594 301.570312 283.394531 C 296.898438 281.136719 292.421875 278.953125 288.144531 276.84375 C 283.738281 274.675781 279.554688 272.578125 275.589844 270.582031 C 275 270.28125 279.523438 276.164062 287.730469 282.640625 C 287.742188 282.640625 287.75 282.640625 287.757812 282.648438 C 293.441406 287.164062 300.902344 291.925781 309.628906 295.164062 C 336.078125 304.933594 357.722656 296.3125 362.910156 306.933594 C 365.652344 312.554688 361.75 319.378906 361.507812 319.800781 Z M 361.507812 319.800781 "/><path style=" stroke:none;fill-rule:nonzero;fill:#ff66c4;fill-opacity:1;" d="M 113.9375 127.152344 C 104.644531 126.875 95.351562 126.597656 86.058594 126.320312 C 86.144531 121.925781 86.347656 117.320312 86.703125 112.515625 C 87.070312 107.507812 87.570312 102.730469 88.15625 98.207031 C 96.796875 98.515625 105.4375 98.824219 114.074219 99.136719 C 114.003906 104.574219 113.957031 110.054688 113.9375 115.582031 C 113.921875 119.457031 113.921875 123.316406 113.9375 127.152344 Z M 113.9375 127.152344 "/><path style=" stroke:none;fill-rule:nonzero;fill:#ff66c4;fill-opacity:1;" d="M 121.296875 241.742188 C 112.003906 241.464844 102.710938 241.1875 93.417969 240.910156 C 93.503906 236.519531 93.707031 231.910156 94.0625 227.105469 C 94.429688 222.097656 94.929688 217.320312 95.519531 212.796875 C 104.15625 213.105469 112.796875 213.417969 121.433594 213.726562 C 121.363281 219.164062 121.316406 224.648438 121.296875 230.171875 C 121.28125 234.050781 121.28125 237.90625 121.296875 241.742188 Z M 121.296875 241.742188 "/><path style=" stroke:none;fill-rule:nonzero;fill:#ff66c4;fill-opacity:1;" d="M 248.269531 337.765625 C 248.195312 343.210938 248.144531 348.6875 248.128906 354.210938 C 248.121094 356.3125 248.113281 358.417969 248.113281 360.503906 C 239.96875 358.246094 232.332031 355.375 227.089844 353.765625 C 225.003906 353.125 222.925781 352.472656 220.847656 351.792969 C 220.863281 351.582031 220.878906 351.363281 220.894531 351.152344 C 221.257812 346.136719 221.761719 341.367188 222.351562 336.835938 C 230.992188 337.152344 239.628906 337.457031 248.269531 337.765625 Z M 248.269531 337.765625 "/><path style=" stroke:none;fill-rule:nonzero;fill:#ff66c4;fill-opacity:1;" d="M 288.289062 254.636719 C 288.21875 260.074219 288.175781 265.558594 288.152344 271.082031 C 288.152344 273 288.144531 274.933594 288.144531 276.84375 C 283.738281 274.675781 279.554688 272.578125 275.589844 270.582031 C 275 270.28125 279.523438 276.164062 287.730469 282.640625 C 278.574219 282.367188 269.4375 282.089844 260.28125 281.824219 C 260.359375 277.433594 260.570312 272.820312 260.917969 268.015625 C 261.289062 263.011719 261.785156 258.230469 262.375 253.707031 C 271.011719 254.015625 279.652344 254.332031 288.289062 254.636719 Z M 288.289062 254.636719 "/><path style=" stroke:none;fill-rule:nonzero;fill:#ff66c4;fill-opacity:1;" d="M 191.679688 183.082031 C 182.386719 182.804688 173.097656 182.527344 163.804688 182.246094 C 163.890625 177.855469 164.09375 173.25 164.445312 168.445312 C 164.816406 163.4375 165.3125 158.660156 165.902344 154.132812 C 174.542969 154.445312 183.179688 154.753906 191.820312 155.066406 C 191.746094 160.503906 191.699219 165.984375 191.679688 171.507812 C 191.667969 175.386719 191.667969 179.246094 191.679688 183.082031 Z M 191.679688 183.082031 "/><path style=" stroke:none;fill-rule:nonzero;fill:#ff66c4;fill-opacity:1;" d="M 92.882812 267 C 92.785156 274.535156 92.722656 282.132812 92.699219 289.792969 C 92.683594 293.3125 92.671875 296.820312 92.691406 300.316406 C 74.039062 291.585938 62.269531 284.371094 55.757812 276.226562 C 55.757812 276.21875 55.757812 276.21875 55.757812 276.21875 C 56.121094 272.613281 56.527344 269.109375 56.96875 265.703125 C 68.941406 266.132812 80.914062 266.570312 92.882812 267 Z M 92.882812 267 "/><path style=" stroke:none;fill-rule:nonzero;fill:#ff66c4;fill-opacity:1;" d="M 80.773438 169.304688 C 80.757812 174.34375 80.757812 179.347656 80.773438 184.332031 C 70.179688 184.015625 59.566406 183.699219 48.96875 183.386719 C 51.722656 171.980469 55.0625 159.921875 58.597656 147.132812 C 66.054688 147.398438 73.503906 147.664062 80.960938 147.933594 C 80.863281 155.003906 80.808594 162.128906 80.773438 169.304688 Z M 80.773438 169.304688 "/><path style=" stroke:none;fill-rule:nonzero;fill:#ff66c4;fill-opacity:1;" d="M 217.855469 295.042969 C 205.78125 294.683594 193.707031 294.320312 181.636719 293.960938 C 181.746094 288.257812 182.011719 282.269531 182.46875 276.027344 C 182.949219 269.519531 183.597656 263.3125 184.363281 257.433594 C 195.585938 257.839844 206.808594 258.242188 218.035156 258.644531 C 217.9375 265.710938 217.878906 272.832031 217.855469 280.007812 C 217.835938 285.046875 217.835938 290.058594 217.855469 295.042969 Z M 217.855469 295.042969 "/><path style=" stroke:none;fill-rule:nonzero;fill:#ff66c4;fill-opacity:1;" d="M 268.027344 209.035156 C 262.496094 208.871094 256.972656 208.710938 251.4375 208.542969 C 251.511719 204.691406 251.65625 200.71875 251.882812 196.617188 Z M 268.027344 209.035156 "/><path style=" stroke:none;fill-rule:nonzero;fill:#353a3e;fill-opacity:1;" d="M 160.984375 261.671875 C 148.976562 261.671875 133.648438 255.835938 115.175781 244.203125 C 99.632812 234.414062 86.402344 221.167969 75.839844 204.820312 L 79.359375 202.546875 C 89.585938 218.375 102.386719 231.199219 117.402344 240.65625 C 143.050781 256.804688 161.898438 261.390625 173.425781 254.273438 C 177.4375 251.804688 179.828125 248.917969 180.535156 245.695312 C 181.742188 240.191406 177.386719 235.308594 170.171875 227.226562 C 168.011719 224.804688 165.558594 222.058594 163.003906 218.984375 C 157.742188 212.664062 155.246094 209.167969 152.945312 205.855469 C 146.546875 196.636719 141.511719 186.339844 137.984375 175.25 L 141.976562 173.976562 C 145.378906 184.671875 150.226562 194.59375 156.390625 203.46875 C 158.632812 206.699219 161.070312 210.113281 166.222656 216.304688 C 168.734375 219.324219 171.160156 222.039062 173.296875 224.4375 C 180.84375 232.890625 186.292969 238.996094 184.625 246.59375 C 183.667969 250.964844 180.636719 254.75 175.625 257.839844 C 171.484375 260.398438 166.597656 261.671875 160.984375 261.671875 Z M 160.984375 261.671875 "/><path style=" stroke:none;fill-rule:nonzero;fill:#353a3e;fill-opacity:1;" d="M 217.171875 229.636719 C 215.582031 229.636719 213.90625 229.453125 212.175781 229.082031 C 202.8125 227.070312 197.605469 219.300781 189.886719 206.789062 C 183.308594 196.121094 176.894531 185.109375 170.835938 174.066406 L 174.507812 172.050781 C 180.535156 183.03125 186.910156 193.980469 193.453125 204.589844 C 201.277344 217.269531 205.761719 223.417969 213.054688 224.984375 C 216.824219 225.796875 220.167969 225.546875 222.472656 224.292969 C 229.796875 220.3125 232.65625 202.007812 223.957031 174.726562 L 227.949219 173.453125 C 236.503906 200.28125 235.109375 222.195312 224.476562 227.972656 C 222.449219 229.074219 219.949219 229.636719 217.171875 229.636719 Z M 217.171875 229.636719 "/><path style=" stroke:none;fill-rule:nonzero;fill:#f7f3ea;fill-opacity:1;" d="M 125.046875 56.195312 C 129.039062 62.808594 123.683594 73.875 116.25 74.742188 C 112.125 75.226562 107.792969 72.511719 105.925781 68.816406 C 102.628906 62.296875 107.039062 52.792969 114.101562 51.414062 C 118.242188 50.601562 122.917969 52.65625 125.046875 56.195312 Z M 125.046875 56.195312 "/><path style=" stroke:none;fill-rule:nonzero;fill:#353a3e;fill-opacity:1;" d="M 118.441406 56.589844 C 122.574219 58.820312 123.1875 66.265625 119.566406 69.015625 C 117.554688 70.542969 114.449219 70.460938 112.332031 69.101562 C 108.59375 66.707031 107.96875 60.375 111.234375 57.46875 C 113.152344 55.765625 116.234375 55.398438 118.441406 56.589844 Z M 118.441406 56.589844 "/><path style=" stroke:none;fill-rule:nonzero;fill:#f7f3ea;fill-opacity:1;" d="M 181.15625 55.664062 C 184.914062 62.414062 179.171875 73.289062 171.714844 73.894531 C 167.574219 74.230469 163.339844 71.367188 161.601562 67.605469 C 158.539062 60.976562 163.277344 51.636719 170.382812 50.5 C 174.550781 49.835938 179.152344 52.054688 181.15625 55.664062 Z M 181.15625 55.664062 "/><path style=" stroke:none;fill-rule:nonzero;fill:#353a3e;fill-opacity:1;" d="M 174.542969 55.828125 C 178.59375 58.203125 178.945312 65.664062 175.230469 68.285156 C 173.164062 69.742188 170.066406 69.550781 167.996094 68.117188 C 164.34375 65.59375 163.941406 59.242188 167.308594 56.453125 C 169.285156 54.820312 172.375 54.558594 174.542969 55.828125 Z M 174.542969 55.828125 "/><path style=" stroke:none;fill-rule:nonzero;fill:#353a3e;fill-opacity:1;" d="M 146.515625 70.507812 C 146.9375 83.660156 147.058594 96.914062 146.515625 110.066406 C 146.515625 110.066406 142.324219 110.140625 142.324219 110.140625 C 142.058594 107.296875 141.902344 103.117188 141.789062 100.214844 C 141.539062 90.285156 141.667969 80.355469 142.324219 70.4375 C 142.324219 70.4375 146.515625 70.507812 146.515625 70.507812 Z M 146.515625 70.507812 "/><path style=" stroke:none;fill-rule:nonzero;fill:#353a3e;fill-opacity:1;" d="M 154.503906 70.785156 C 151.117188 73.691406 147.730469 76.59375 144.339844 79.5 C 141.269531 76.332031 138.195312 73.164062 135.125 69.992188 C 137.925781 69.734375 141.128906 69.601562 144.648438 69.738281 C 148.324219 69.878906 151.632812 70.28125 154.503906 70.785156 Z M 154.503906 70.785156 "/><path style=" stroke:none;fill-rule:nonzero;fill:#ff66c4;fill-opacity:1;" d="M 118.078125 33.59375 C 115.050781 33.503906 112.023438 33.414062 108.992188 33.320312 C 109.207031 32.167969 109.609375 30.535156 110.4375 28.6875 C 111.878906 25.476562 114.933594 20.882812 116.632812 21.234375 C 117.710938 21.457031 118.722656 23.769531 118.078125 33.59375 Z M 118.078125 33.59375 "/><path style=" stroke:none;fill-rule:nonzero;fill:#ff66c4;fill-opacity:1;" d="M 176.53125 34.9375 C 173.492188 34.84375 170.453125 34.753906 167.414062 34.664062 C 167.5 33.511719 167.722656 31.878906 168.351562 30.027344 C 169.441406 26.816406 171.992188 22.226562 173.726562 22.578125 C 174.832031 22.800781 176.09375 25.113281 176.53125 34.9375 Z M 176.53125 34.9375 "/></g></svg>